<svg width="20" height="20" viewBox="0 0 20 20" fill="none" xmlns="http://www.w3.org/2000/svg">
<path d="M14.2072 5.94834L8.16634 11.9892L4.87551 8.70751L3.58301 10L8.16634 14.5833L15.4997 7.25001L14.2072 5.94834ZM9.99967 0.833344C4.93967 0.833344 0.833008 4.94001 0.833008 10C0.833008 15.06 4.93967 19.1667 9.99967 19.1667C15.0597 19.1667 19.1663 15.06 19.1663 10C19.1663 4.94001 15.0597 0.833344 9.99967 0.833344ZM9.99967 17.3333C5.94801 17.3333 2.66634 14.0517 2.66634 10C2.66634 5.94834 5.94801 2.66668 9.99967 2.66668C14.0513 2.66668 17.333 5.94834 17.333 10C17.333 14.0517 14.0513 17.3333 9.99967 17.3333Z" fill="#2E7D32"/>
</svg>
